<svg width="80" height="80" viewBox="0 0 80 80" fill="none" xmlns="http://www.w3.org/2000/svg">
  <rect width="80" height="80" rx="16" fill="#06C755"/>
  <path d="M56 32C56 40.8366 48.8366 48 40 48C31.1634 48 24 40.8366 24 32C24 23.1634 31.1634 16 40 16C48.8366 16 56 23.1634 56 32Z" fill="white"/>
  <path d="M24 54.6667C24 48.1433 31.1634 42.6667 40 42.6667C48.8366 42.6667 56 48.1433 56 54.6667V58.6667C56 62.3486 53.0152 65.3333 49.3333 65.3333H30.6667C27.0652 65.3333 24 62.2682 24 58.6667V54.6667Z" fill="white"/>
  <path d="M46.6667 32C46.6667 35.6819 43.6819 38.6667 40 38.6667C36.3181 38.6667 33.3334 35.6819 33.3334 32C33.3334 28.3181 36.3181 25.3333 40 25.3333C43.6819 25.3333 46.6667 28.3181 46.6667 32Z" fill="#06C755"/>
</svg> 